<?xml version="1.0" encoding="utf-8"?>
<!-- Generator: Adobe Illustrator 19.0.0, SVG Export Plug-In . SVG Version: 6.00 Build 0)  -->
<svg version="1.1" id="Layer_1" xmlns="http://www.w3.org/2000/svg" xmlns:xlink="http://www.w3.org/1999/xlink" x="0px" y="0px"
	 viewBox="0 0 68.1 68.2" style="enable-background:new 0 0 68.1 68.2;" xml:space="preserve">
<style type="text/css">
	.st0{fill:#193D4B;}
	.st1{fill:#FFFFFF;}
	.st2{fill:#00A651;}
</style>
<g>
	<path class="st0" d="M67,61.5c0,2.8-2.3,5.1-5.1,5.1H6.7c-2.8,0-5.1-2.3-5.1-5.1V6.2c0-2.8,2.3-5.1,5.1-5.1H62
		c2.8,0,5.1,2.3,5.1,5.1V61.5z"/>
	<g>
		<g>
			<g>
				<g id="XMLID_132_">
					<g id="XMLID_138_">
						<path id="XMLID_142_" class="st1" d="M58.9,42.5c0.1-2.7-2.4-3.4-3.9-3.2c-2.9,0.5-2.6,3.2-2.6,3.2l0,0c0,2.6-0.6,4.5-1.9,5.8
							c-1.3,1.3-3.1,1.9-5.5,1.9c-4.9,0-7.4-2.6-7.4-7.7v0c0,4.2-1.1,7.4-3.3,9.6c0.2,0.2,0.4,0.3,0.5,0.5c2.5,2.1,5.9,3.2,10.1,3.2
							c4.3,0,7.6-1.1,10.2-3.2C57.6,50.5,58.9,47.1,58.9,42.5L58.9,42.5z"/>
						<path id="XMLID_139_" class="st1" d="M45,58.1c-4.8,0-8.7-1.3-11.6-3.8c-0.2-0.2-0.5-0.4-0.7-0.6L31,52.1l1.7-1.6
							c1.7-1.7,2.6-4.4,2.6-7.9l4.6,0c0,3.9,1.4,5.4,5.1,5.4c1.8,0,3-0.4,3.9-1.2c0.8-0.8,1.2-2.2,1.2-4c-0.1-1.9,0.9-4.9,4.5-5.5
							c0.3-0.1,0.7-0.1,1-0.1c1.6,0,3.2,0.6,4.2,1.7c0.6,0.6,1.3,1.7,1.4,3.4l0,0.1c0,0.1,0,0.2,0,0.2l0,0.1c0,5.2-1.5,9.2-4.6,11.8
							C53.7,56.8,49.8,58.1,45,58.1z M37.5,51.7c1.9,1.2,4.4,1.8,7.4,1.8c3.7,0,6.6-0.9,8.7-2.7c1.9-1.6,2.9-4.2,3-7.9l0,0l0-0.4
							c0-0.2,0-0.4-0.1-0.6c-0.2-0.2-0.7-0.3-1.1-0.3c-0.3,0.1-0.7,0.1-0.7,0.6l0,0l0,0.3c0,3.2-0.9,5.7-2.6,7.4
							c-1.7,1.7-4.1,2.6-7.1,2.6c-2.8,0-5.1-0.8-6.7-2.2C38.1,50.8,37.8,51.3,37.5,51.7z"/>
					</g>
					<g id="XMLID_133_">
						<path id="XMLID_137_" class="st1" d="M52.4,25.2c0-2.6-0.6-4.5-1.9-5.8c-1.3-1.3-3.1-1.9-5.5-1.9c-4.9,0-7.4,2.5-7.4,7.6
							c0-4.2-1.1-7.4-3.2-9.6c0.2-0.1,0.3-0.3,0.5-0.4c2.5-2.1,5.9-3.2,10.1-3.2c4.3,0,7.6,1.1,10.2,3.2c2.5,2.1,3.8,5.5,3.8,10.1
							c0,0,0.3,2.7-2.6,3.2C54.8,28.6,52.3,28,52.4,25.2z"/>
						<path id="XMLID_134_" class="st1" d="M55.7,30.7c-1.6,0-3.2-0.6-4.2-1.7c-0.7-0.7-1.5-1.9-1.4-3.9c0-1.9-0.4-3.3-1.2-4.1
							c-0.8-0.8-2.1-1.2-3.9-1.2c-3.7,0-5.1,1.5-5.1,5.3l-4.6,0c0-3.6-0.9-6.2-2.6-7.9l-1.6-1.6l1.7-1.6c0.2-0.2,0.4-0.4,0.6-0.5
							c2.9-2.5,6.8-3.8,11.6-3.8c4.8,0,8.7,1.3,11.6,3.8c3,2.6,4.6,6.5,4.6,11.7c0.1,1.9-0.9,4.9-4.5,5.5
							C56.4,30.7,56,30.7,55.7,30.7z M45,15.2c3,0,5.4,0.9,7.1,2.6c1.7,1.7,2.6,4.2,2.6,7.4c0,0.3,0,0.5,0.1,0.6
							c0.2,0.2,0.7,0.3,1.1,0.3c0.2,0,0.8-0.1,0.7-0.7l0-0.2c0-3.9-1-6.6-3-8.3c-2.1-1.8-5-2.7-8.7-2.7c-3,0-5.4,0.6-7.4,1.7
							c0.3,0.4,0.5,0.9,0.7,1.4C39.9,16,42.2,15.2,45,15.2z"/>
					</g>
				</g>
			</g>
			<g>
				<g>
					<path class="st2" d="M29.1,48.2c-1.3,1.3-3.1,1.9-5.5,1.9c-4.9,0-7.4-2.6-7.4-7.7V25.1c0-5.1,2.5-7.7,7.4-7.7
						c2.4,0,4.2,0.6,5.5,1.9c1.3,1.3,1.9,3.2,1.9,5.8v0c0-4.2,1.1-7.4,3.3-9.6c-0.2-0.2-0.4-0.3-0.5-0.5c-2.5-2.1-5.9-3.2-10.2-3.2
						c-4.3,0-7.6,1.1-10.1,3.2c-2.5,2.1-3.8,5.5-3.8,10.1v17.3c0,4.6,1.3,7.9,3.8,10.1c2.5,2.1,5.9,3.2,10.1,3.2
						c4.3,0,7.6-1.1,10.2-3.2c0.2-0.1,0.3-0.3,0.5-0.4c-2.1-2.2-3.2-5.3-3.2-9.6C31,45.1,30.4,47,29.1,48.2z"/>
					<path class="st2" d="M23.6,58c-4.8,0-8.7-1.3-11.6-3.8c-3-2.6-4.6-6.6-4.6-11.8V25.1c0-5.2,1.5-9.2,4.6-11.8
						c2.9-2.5,6.8-3.8,11.6-3.8c4.8,0,8.7,1.3,11.6,3.8c0.2,0.2,0.5,0.4,0.7,0.6l1.6,1.6L36,17.2c-1.7,1.7-2.6,4.4-2.6,7.9l-4.6,0
						c0-1.9-0.4-3.3-1.2-4.2c-0.8-0.8-2.1-1.2-3.9-1.2c-3.7,0-5.1,1.5-5.1,5.4v17.3c0,3.9,1.4,5.4,5.1,5.4c1.8,0,3-0.4,3.9-1.2
						c0.8-0.8,1.2-2.2,1.2-4.1l4.6,0c0,3.6,0.9,6.2,2.6,7.9l1.6,1.6l-1.7,1.6c-0.2,0.2-0.4,0.4-0.6,0.5C32.4,56.8,28.4,58,23.6,58z
						 M23.6,14.1c-3.7,0-6.6,0.9-8.7,2.7c-2,1.7-3,4.4-3,8.3v17.3c0,3.9,1,6.6,3,8.3c2.1,1.8,5,2.7,8.7,2.7c3,0,5.5-0.6,7.4-1.8
						c-0.3-0.4-0.5-0.9-0.8-1.4c-1.7,1.4-3.9,2.1-6.6,2.1c-6.2,0-9.7-3.6-9.7-10V25.1c0-6.3,3.5-10,9.7-10c2.7,0,5,0.7,6.7,2.2
						c0.2-0.5,0.5-1,0.8-1.4C29.2,14.8,26.7,14.1,23.6,14.1z"/>
				</g>
				<g>
					<path class="st2" d="M31.1,25.1v17.3c0,0,0,0.1,0,0.1c0,4.2,1.1,7.4,3.2,9.6c2.2-2.1,3.3-5.3,3.3-9.6V25.2c0,0,0-0.1,0-0.1
						c0-4.2-1.1-7.4-3.2-9.6C32.2,17.7,31.1,20.9,31.1,25.1z"/>
					<path class="st2" d="M34.3,55.3l-1.6-1.6c-2.6-2.6-3.9-6.3-3.9-11.2l0-17.4c0-4.9,1.4-8.6,4-11.2l1.6-1.6L36,14
						c2.6,2.6,3.9,6.3,3.9,11.2l0,17.4c0,4.9-1.4,8.6-4,11.2L34.3,55.3z M34.3,19.6c-0.7,1.5-1,3.3-1,5.5v17.3c0,2.2,0.3,4.1,1,5.6
						c0.7-1.5,1-3.3,1-5.5V25.2C35.3,23,35,21.1,34.3,19.6z"/>
				</g>
				<g>
					<path class="st2" d="M31.1,43.1c0,0-0.3,5.3,3.2,9c1.4,1.5,3.5,2.8,6.4,3.3c2.3,0.4,3.9-3.9,1.6-5.5c-0.2-0.1-4.7-1.6-4.7-7.4
						L31.1,43.1z"/>
					<path class="st2" d="M41,57.7L41,57.7c-0.2,0-0.5,0-0.7-0.1c-3.2-0.6-5.8-1.9-7.7-4c-4.1-4.4-3.8-10.4-3.8-10.7l0.1-2l11-0.9
						l0,2.5c-0.1,4,2.7,5,3,5.1l0.3,0.1l0.3,0.2c1.9,1.3,2.6,3.6,1.9,6C44.7,56.2,42.9,57.7,41,57.7z M33.5,45.2
						c0.2,1.5,0.9,3.7,2.4,5.4c1.2,1.3,2.8,2.1,4.9,2.5c0.1-0.2,0.3-0.5,0.3-0.9c0-0.1,0-0.2-0.1-0.3c-1.9-0.8-4.7-2.9-5.5-6.9
						L33.5,45.2z"/>
				</g>
			</g>
		</g>
	</g>
</g>
</svg>
