<?xml version="1.0" encoding="utf-8"?>
<!-- Generator: Adobe Illustrator 19.0.0, SVG Export Plug-In . SVG Version: 6.00 Build 0)  -->
<svg version="1.1" id="Layer_1" xmlns="http://www.w3.org/2000/svg" xmlns:xlink="http://www.w3.org/1999/xlink" x="0px" y="0px"
	 viewBox="0 0 182 47.9" style="enable-background:new 0 0 182 47.9;" xml:space="preserve">
<style type="text/css">
	.st0{fill:#193D4B;}
	.st1{fill:#00A651;}
	.st2{fill:#FFFFFF;}
</style>
<path class="st0" d="M45.9,32.5c-0.2,0.5-0.5,0.8-1.1,0.8c-0.6,0-1.1-0.4-1.7-0.7c-0.1-0.1-0.2-0.2-0.2-0.3c0-0.2,0.2-0.5,0.2-0.7
	c0.1-0.3,0.2-0.5,0.3-0.8c0.2-0.5,0.4-1.1,0.7-1.6c0.3-0.6,0.6-1.3,0.8-1.9c0.3-0.7,0.7-1.4,1-2.2c0.4-0.8,0.8-1.6,1.2-2.4
	c0-0.1,0.1-0.2,0.1-0.3c0.8-1.6,1.6-3.3,2.4-5c0.6-1.3,1.1-2.5,1.6-3.8c0.3-0.8,0.7-1.7,0.5-2.6c-0.1-0.6-0.6-1-0.8-1.6
	c-0.3-1,2-1.1,2.5-1.1c0.8-0.1,1.7-0.2,2.5-0.2c0.7,0,1.3,0,2,0c0.5,0,1.2-0.1,1.7,0.2c0.6,0.4,0.6,1.3,0.7,1.8
	c0.2,1,0.2,1.9,0.3,2.9c0,0.6,0,1.1,0.1,1.7c0.1,1.7,0.1,3.5,0.1,5.2c0,1.2,0,2.4,0,3.6c0,2.9,0.2,4.9,0.7,6
	c0.2,0.4,0.4,0.7,0.6,0.7c0.4,0,0.7-0.1,1.1-0.3c0.2-0.1,0.4-0.3,0.7-0.4c0.2-0.1,0.4-0.2,0.6,0c0.1,0.2,0.2,0.4,0.3,0.6
	c0.1,0.2,0.3,0.3,0.2,0.5c0,0.2-0.3,0.3-0.4,0.4c-0.2,0.2-0.4,0.3-0.6,0.5c-0.4,0.3-0.8,0.6-1.2,0.8c-0.2,0.1-0.5,0.3-0.7,0.4
	c-1.1,0.5-2.1,0.8-3,0.8c-0.5,0-1-0.2-1.4-0.3c-0.4-0.2-0.8-0.4-1.1-0.8c-0.8-1.1-1.1-2.5-1.1-3.8c0-0.4,0-0.9,0-1.3
	c0-0.3,0-0.6,0.1-1c0-0.3,0.2-0.7,0-0.9C55.4,25,55.1,25,54.8,25c-1.5-0.1-3.1,0-4.6,0.1c-0.6,0-1.3,0-1.7,0.5
	c-0.3,0.4-0.4,1-0.6,1.5c-0.2,0.6-0.5,1.2-0.7,1.8c-0.1,0.3-0.3,0.7-0.4,1c-0.1,0.4-0.3,0.8-0.4,1.2C46.2,31.6,46,32.1,45.9,32.5z
	 M55.5,22.7l0-4.1c0-3.6-0.2-6-0.5-7.2c-0.2,0-0.3,0-0.4,0.1c-0.7,1.8-1.3,3.3-1.8,4.6c-0.6,1.3-1.2,2.6-1.9,4
	c-0.7,1.4-1.1,2.3-1.2,2.7H55.5z"/>
<path class="st0" d="M65.6,18c0.1-0.1,0.3-0.1,0.5-0.1c0.3-0.1,0.6-0.1,0.9-0.1c0.8-0.1,1.5-0.1,2.3-0.2c0.5,0,1,0,1.5,0
	c0.2,0,0.4-0.1,0.5,0.1c0.1,0.1,0.1,0.3,0.1,0.4c0,0.2,0.1,0.3,0.1,0.5c0,0.2,0.1,0.3,0.1,0.5c0,0.1,0,0.2,0,0.3c0,0,0,0.2,0,0.3
	c1.8-1.5,3.3-2.2,4.5-2.2c1.2,0,2.2,0.5,2.9,1.5c0.7,1,1.1,2.5,1.1,4.4c0,3.4-0.6,5.9-1.9,7.6c-1.2,1.6-3,2.6-5,2.5
	c-0.6,0-1.4-0.1-2-0.3c-0.3-0.1-0.6-0.2-0.6-0.5c0-0.2,0.1-0.5,0.2-0.6c0.1-0.1,0.3-0.1,0.4-0.2c0.2-0.1,0.3-0.2,0.5-0.3
	c0.3-0.2,0.7-0.5,0.9-0.7c0.7-0.7,1.2-1.5,1.6-2.4c0.8-1.9,1.2-4.3,0.6-6.3c-0.2-0.6-0.5-1.2-1.1-1.4c-0.5-0.2-1,0-1.4,0.3
	c-1.1,0.9-1.3,2.5-1.5,3.8c-0.3,2-0.6,4-1,6c-0.3,1.3-0.5,2.6-0.7,4c-0.2,1.2-0.3,2.4-0.4,3.5c0,0.3,0,0.7,0,1c0,0.2,0,0.5-0.2,0.6
	c-0.2,0.2-0.6,0.2-0.9,0.3c-0.5,0.1-0.9,0.2-1.4,0.3c-0.3,0-0.5,0.1-0.8,0.1c-0.3,0-0.6,0.1-0.9,0.1c-0.2,0-0.4,0.1-0.6-0.1
	c0,0,0,0-0.1,0c-0.2-0.2-0.2-0.5-0.2-0.7c0-0.3,0-0.6,0-0.9c0-0.6,0.1-1.2,0.2-1.8c0.1-0.5,0.2-1,0.3-1.5c0.1-0.6,0.2-1.3,0.4-1.9
	c0.2-0.8,0.3-1.6,0.5-2.4c0-0.1,0-0.2,0.1-0.3c0.9-4.2,1.4-7.4,1.4-9.7c0-0.4-0.1-0.9-0.3-1.4c-0.1-0.3-0.3-0.6-0.5-0.9
	c-0.1-0.1-0.2-0.3-0.3-0.4c-0.1-0.1-0.2-0.3-0.2-0.4C65.4,18.1,65.5,18.1,65.6,18z"/>
<path class="st0" d="M109.5,28.4c0,1.5-0.7,2.7-2,3.6c-0.5,0.3-0.9,0.5-1.5,0.7c-0.3,0.1-0.6,0.2-0.9,0.3c-0.7,0.2-1.3,0.3-2,0.4
	c-1.4,0.1-3-0.1-4.2-0.9c-1-0.7-1.4-1.9-0.8-2.9c0.5-1,1.7-1.7,2.9-1.6c1.2,0.2,1.8,1.4,2.2,2.4c0.1,0.2,0.2,0.5,0.2,0.7
	c0.1,0.3,0.4,0.6,0.7,0.5c0.4-0.1,0.7-0.4,0.8-0.8c0-0.1,0.1-0.3,0.1-0.4c0-1.1-0.9-2.6-2.8-4.6c-1.9-2-2.8-3.6-2.8-4.7
	c0-1.2,0.5-2.1,1.6-2.7c1.1-0.6,2.3-1,3.8-1c1.5,0,2.6,0.3,3.4,0.8c0.7,0.5,1.1,1.2,1.1,2.1c0,0.9-0.7,2.2-2.1,3.7
	c0.2,0.2,0.4,0.4,0.6,0.7c0.3,0.3,0.6,0.8,1,1.5C109.3,27,109.5,27.7,109.5,28.4z M107.6,20.4c0-0.8-0.6-1.2-1.7-1.2
	c-0.5,0-1,0.1-1.3,0.3c-0.4,0.2-0.5,0.5-0.5,0.8c0,0.5,0.5,1.2,1.5,2.2l0.5,0.5C107.1,22,107.6,21.2,107.6,20.4z"/>
<path class="st1" d="M119.4,33.4c-2.2,0-4-0.9-5.4-2.7c-1.4-1.8-2.1-4.1-2.1-6.9c0-2.9,0.5-5.5,1.5-7.8c1-2.4,2.4-4.3,4.2-5.8
	c1.8-1.5,3.8-2.2,5.9-2.2c2.1,0,3.8,0.5,5,1.4c1.3,0.9,1.9,2.1,1.9,3.4c0,0.6-0.1,1.2-0.3,1.8c-0.1,0.4-0.3,0.8-0.6,1.2
	c-0.4,0.5-0.8,0.3-1.4,0.2c-0.5-0.1-1-0.2-1.4-0.4c-0.6-0.2-1.2-0.5-1.8-0.9c-0.5-0.3-0.3-0.7-0.2-1.2c0.1-0.3,0.1-0.7,0.2-1
	c0.1-0.3,0.1-0.7,0.2-1c0.1-0.6-0.1-0.8-0.7-1c-0.5-0.1-1-0.2-1.4-0.2c-1.4,0-2.7,1.2-3.8,3.7c-1.1,2.5-1.7,5.5-1.7,9.1
	c0,2.4,0.4,4.1,1.2,5.2c0.8,1.1,1.7,1.6,2.9,1.6c0.7,0,1.5-0.1,2.1-0.4c0.8-0.3,1.5-0.7,2.1-1.2c0.2-0.2,0.4-0.4,0.7-0.6
	c0.1-0.1,0.2-0.3,0.4-0.3c0.2,0,0.3,0.1,0.4,0.2c0.2,0.2,0.5,0.4,0.7,0.6c0.2,0.2,0.4,0.4,0.2,0.7c-0.1,0.2-0.3,0.3-0.5,0.5
	c-0.2,0.3-0.5,0.5-0.8,0.7c-0.7,0.7-1.3,1.2-2,1.6c-0.7,0.4-1.5,0.8-2.5,1.2C121.5,33.2,120.4,33.4,119.4,33.4z"/>
<path class="st1" d="M135.1,33.4c-1.6,0-2.9-0.6-3.8-1.7c-0.9-1.1-1.4-2.7-1.4-4.8c0-2.6,0.7-4.8,2.1-6.7c1.4-1.9,3.3-2.8,5.8-2.8
	l1.3,0.1c0.4-0.2,0.8-0.3,1.3-0.3c1.9,0,2.8,1.7,2.8,5.2c1,0,1.9-0.2,2.9-0.4l0.6-0.1l0.2,1.4c-0.8,0.3-1.8,0.6-3.1,0.9l-0.7,0.1
	c-0.4,2.5-1.3,4.6-2.7,6.4C139,32.5,137.2,33.4,135.1,33.4z M137,30.4c1,0,1.9-0.6,2.7-1.9c0.8-1.3,1.3-2.6,1.6-4
	c-2.5,0-3.8-0.9-3.8-2.8c0-0.8,0.2-1.5,0.5-2.1l0.2-0.4c-0.1,0-0.2-0.1-0.4-0.1c-0.1,0-0.2,0-0.3,0.1c-0.6,0.4-1.1,1.3-1.7,2.6
	s-0.8,3-0.8,4.7C135.1,29.1,135.7,30.4,137,30.4z"/>
<path class="st1" d="M161.2,30.8c0,0,0,0.1-0.1,0.1c-0.2,0.3-0.6,0.5-0.9,0.7c-0.4,0.3-0.8,0.6-1.2,0.8c-0.6,0.4-1.3,0.7-2,0.8
	c-0.3,0.1-0.7,0.1-1,0.1c-1.5,0-2.4-0.7-2.6-2.3c-0.7,0.7-1.5,1.3-2.4,1.7c-0.9,0.4-1.6,0.6-2.3,0.6c-1.1,0-2.1-0.5-2.9-1.5
	c-0.8-1-1.2-2.5-1.2-4.6c0-3.1,0.7-5.5,2-7.3c1.3-1.8,2.8-2.7,4.4-2.7c1.7,0,3,0.4,4.2,1.1c0.3-1.4,0.5-2.8,0.7-4.2
	c0.2-1.1,0.3-2.2,0.3-3.4c0.1-0.8,0-1.5-0.1-2.3c-0.1-0.4,0-0.7,0.5-0.8c0.2,0,0.4-0.1,0.7-0.2c0.6-0.2,1.2-0.3,1.8-0.4
	c0.3,0,0.7-0.1,1-0.1c0.5,0,1.2-0.3,1.3,0.5c0.2,1.1,0,2.2-0.1,3.3c-0.1,0.7-0.2,1.4-0.3,2.1c-0.1,0.9-0.3,1.7-0.4,2.5
	c-0.2,1-0.4,2-0.6,3c0,0.1-0.1,0.3-0.1,0.4c-1,5.2-1.5,8.8-1.5,10.7c0,0.6,0.1,0.8,0.4,0.8c0.2,0,0.4-0.1,0.6-0.2
	c0.2-0.1,0.3-0.2,0.5-0.3c0.2-0.1,0.3-0.2,0.5-0.3c0.2-0.1,0.3,0,0.3,0.2c0.1,0.2,0.2,0.3,0.3,0.5C161.1,30.5,161.2,30.7,161.2,30.8
	z M152.8,19.5c-0.8,0-1.5,0.8-2.1,2.4s-0.9,3.2-0.9,4.8c0,1.6,0.1,2.6,0.3,3c0.2,0.4,0.6,0.7,1,0.7c0.8,0,1.5-0.3,2.3-0.9
	c0.1-0.9,0.6-4.1,1.6-9.4C154.1,19.7,153.4,19.5,152.8,19.5z"/>
<path class="st1" d="M162.1,26.9c0-2.9,0.9-5.2,2.7-6.9c1.8-1.7,3.8-2.5,6-2.5c1.4,0,2.5,0.3,3.4,1c0.9,0.7,1.3,1.6,1.3,2.7
	c0,1.1-0.3,2.1-0.9,2.9c-0.6,0.8-1.3,1.4-2.1,1.8c-1.7,0.8-3.2,1.3-4.6,1.5l-0.8,0.1c0.2,2.2,1.1,3.3,2.7,3.3c0.6,0,1.2-0.1,1.8-0.4
	c0.3-0.1,0.6-0.2,0.8-0.4c0.3-0.2,0.5-0.4,0.7-0.6c0.2-0.2,0.4-0.3,0.6-0.1c0.1,0.1,0.3,0.3,0.4,0.5c0.1,0.1,0.3,0.3,0.2,0.5
	c-0.1,0.2-0.2,0.3-0.3,0.4c-0.2,0.2-0.5,0.4-0.7,0.6c-0.6,0.4-1.1,0.8-1.6,1.1c-1.4,0.7-2.8,1.1-4.5,1.1s-2.9-0.6-3.8-1.7
	S162.1,28.9,162.1,26.9z M170,24.2c0.7-0.8,1.1-1.8,1.1-3.1s-0.4-1.9-1.1-1.9c-0.9,0-1.6,0.8-2.1,2.3s-0.7,2.9-0.7,4.2
	C168.3,25.5,169.2,25,170,24.2z"/>
<g>
	<path id="XMLID_17_" class="st0" d="M38.9,37.6c0,1.4-1.1,2.5-2.5,2.5H9c-1.4,0-2.5-1.1-2.5-2.5V10.3c0-1.4,1.1-2.5,2.5-2.5h27.4
		c1.4,0,2.5,1.1,2.5,2.5V37.6z"/>
	<g>
		<g>
			<g>
				<g id="XMLID_109_">
					<g id="XMLID_115_">
						<path id="XMLID_119_" class="st2" d="M34.8,28.3c0-1.4-1.2-1.7-1.9-1.6c-1.4,0.2-1.3,1.6-1.3,1.6l0,0c0,1.3-0.3,2.2-1,2.9
							c-0.6,0.6-1.5,0.9-2.7,0.9c-2.4,0-3.7-1.3-3.7-3.8v0c0,2.1-0.6,3.7-1.6,4.7c0.1,0.1,0.2,0.2,0.3,0.2c1.2,1.1,2.9,1.6,5,1.6
							c2.1,0,3.8-0.5,5-1.6C34.2,32.2,34.8,30.5,34.8,28.3L34.8,28.3z"/>
						<path id="XMLID_116_" class="st2" d="M27.9,36c-2.4,0-4.3-0.6-5.8-1.9c-0.1-0.1-0.2-0.2-0.3-0.3L21,33l0.8-0.8
							c0.9-0.8,1.3-2.2,1.3-3.9l2.3,0c0,1.9,0.7,2.7,2.5,2.7c0.9,0,1.5-0.2,1.9-0.6c0.4-0.4,0.6-1.1,0.6-2c-0.1-1,0.5-2.4,2.2-2.7
							c0.2,0,0.3,0,0.5,0c0.8,0,1.6,0.3,2.1,0.8c0.3,0.3,0.7,0.9,0.7,1.7l0,0c0,0,0,0.1,0,0.1l0,0c0,2.6-0.8,4.6-2.3,5.8
							C32.3,35.3,30.3,36,27.9,36z M24.2,32.8c1,0.6,2.2,0.9,3.7,0.9c1.8,0,3.3-0.4,4.3-1.3c1-0.8,1.4-2.1,1.5-3.9l0,0l0-0.2
							c0-0.1,0-0.2-0.1-0.3c-0.1-0.1-0.4-0.2-0.6-0.1c-0.2,0-0.3,0.1-0.3,0.3l0,0l0,0.1c0,1.6-0.4,2.8-1.3,3.7
							c-0.9,0.8-2,1.3-3.5,1.3c-1.4,0-2.5-0.4-3.3-1.1C24.5,32.4,24.4,32.6,24.2,32.8z"/>
					</g>
					<g id="XMLID_110_">
						<path id="XMLID_114_" class="st2" d="M31.6,19.7c0-1.3-0.3-2.2-1-2.9c-0.6-0.6-1.5-0.9-2.7-0.9c-2.4,0-3.6,1.3-3.7,3.8
							c0-2.1-0.5-3.7-1.6-4.7c0.1-0.1,0.2-0.1,0.2-0.2c1.2-1.1,2.9-1.6,5-1.6c2.1,0,3.8,0.5,5,1.6c1.2,1.1,1.9,2.7,1.9,5
							c0,0,0.1,1.3-1.3,1.6C32.8,21.4,31.6,21,31.6,19.7z"/>
						<path id="XMLID_111_" class="st2" d="M33.2,22.4c-0.8,0-1.6-0.3-2.1-0.8c-0.3-0.3-0.7-1-0.7-1.9c0-0.9-0.2-1.6-0.6-2
							c-0.4-0.4-1-0.6-1.9-0.6c-1.8,0-2.5,0.7-2.5,2.6l-2.3,0c0-1.8-0.4-3.1-1.3-3.9l-0.8-0.8l0.8-0.8c0.1-0.1,0.2-0.2,0.3-0.3
							c1.4-1.2,3.4-1.9,5.8-1.9c2.4,0,4.3,0.6,5.8,1.9c1.5,1.3,2.3,3.2,2.3,5.8c0.1,1-0.5,2.4-2.2,2.7
							C33.6,22.4,33.4,22.4,33.2,22.4z M27.9,14.7c1.5,0,2.7,0.4,3.5,1.3c0.9,0.8,1.3,2.1,1.3,3.7c0,0.1,0,0.3,0.1,0.3
							c0.1,0.1,0.4,0.2,0.6,0.1c0.1,0,0.4-0.1,0.3-0.3l0-0.1c0-1.9-0.5-3.3-1.5-4.1c-1-0.9-2.5-1.3-4.3-1.3c-1.5,0-2.7,0.3-3.7,0.9
							c0.1,0.2,0.3,0.4,0.4,0.7C25.5,15.1,26.6,14.7,27.9,14.7z"/>
					</g>
				</g>
			</g>
			<g>
				<g>
					<path id="XMLID_10_" class="st1" d="M20.1,31.1c-0.6,0.6-1.5,0.9-2.7,0.9c-2.4,0-3.7-1.3-3.7-3.8v-8.6c0-2.5,1.2-3.8,3.7-3.8
						c1.2,0,2.1,0.3,2.7,0.9c0.6,0.6,1,1.6,1,2.9v0c0-2.1,0.5-3.7,1.6-4.7c-0.1-0.1-0.2-0.2-0.3-0.2c-1.2-1.1-2.9-1.6-5-1.6
						c-2.1,0-3.8,0.5-5,1.6c-1.2,1.1-1.9,2.7-1.9,5v8.6c0,2.3,0.6,3.9,1.9,5c1.2,1.1,2.9,1.6,5,1.6c2.1,0,3.8-0.5,5-1.6
						c0.1-0.1,0.2-0.1,0.2-0.2c-1.1-1.1-1.6-2.6-1.6-4.7C21,29.5,20.7,30.5,20.1,31.1z"/>
					<path class="st1" d="M17.4,35.9c-2.4,0-4.3-0.6-5.8-1.9c-1.5-1.3-2.3-3.2-2.3-5.8v-8.6c0-2.6,0.8-4.6,2.3-5.8
						c1.4-1.2,3.4-1.9,5.8-1.9c2.4,0,4.3,0.6,5.8,1.9c0.1,0.1,0.2,0.2,0.3,0.3l0.8,0.8l-0.8,0.8c-0.9,0.8-1.3,2.2-1.3,3.9l-2.3,0
						c0-1-0.2-1.7-0.6-2.1c-0.4-0.4-1-0.6-1.9-0.6c-1.8,0-2.5,0.7-2.5,2.7v8.6c0,1.9,0.7,2.7,2.5,2.7c0.9,0,1.5-0.2,1.9-0.6
						c0.4-0.4,0.6-1.1,0.6-2l2.3,0c0,1.8,0.4,3.1,1.3,3.9l0.8,0.8l-0.8,0.8c-0.1,0.1-0.2,0.2-0.3,0.3C21.7,35.3,19.8,35.9,17.4,35.9
						z M17.4,14.2c-1.8,0-3.3,0.4-4.3,1.3c-1,0.8-1.5,2.2-1.5,4.1v8.6c0,1.9,0.5,3.3,1.5,4.1c1,0.9,2.5,1.3,4.3,1.3
						c1.5,0,2.7-0.3,3.7-0.9c-0.1-0.2-0.3-0.5-0.4-0.7c-0.8,0.7-1.9,1.1-3.3,1.1c-3,0-4.8-1.8-4.8-4.9v-8.6c0-3.1,1.7-4.9,4.8-4.9
						c1.4,0,2.5,0.4,3.3,1.1c0.1-0.2,0.2-0.5,0.4-0.7C20.1,14.5,18.9,14.2,17.4,14.2z"/>
				</g>
				<g>
					<path id="XMLID_7_" class="st1" d="M21.1,19.6v8.6c0,0,0,0,0,0c0,2.1,0.5,3.7,1.6,4.7c1.1-1.1,1.6-2.6,1.6-4.7v-8.6
						c0,0,0,0,0,0c0-2.1-0.5-3.7-1.6-4.7C21.6,16,21.1,17.5,21.1,19.6z"/>
					<path class="st1" d="M22.6,34.6l-0.8-0.8c-1.3-1.3-1.9-3.1-1.9-5.5l0-8.6c0-2.4,0.7-4.3,2-5.5l0.8-0.8l0.8,0.8
						c1.3,1.3,1.9,3.1,1.9,5.5l0,8.6c0,2.4-0.7,4.3-2,5.5L22.6,34.6z M22.7,16.9c-0.3,0.7-0.5,1.7-0.5,2.7v8.6c0,1.1,0.2,2,0.5,2.8
						c0.3-0.7,0.5-1.7,0.5-2.7v-8.6C23.2,18.6,23,17.6,22.7,16.9z"/>
				</g>
				<g>
					<path id="XMLID_4_" class="st1" d="M21.1,28.5c0,0-0.1,2.6,1.6,4.5c0.7,0.8,1.7,1.4,3.2,1.6c1.1,0.2,1.9-1.9,0.8-2.7
						c-0.1,0-2.3-0.8-2.3-3.6L21.1,28.5z"/>
					<path class="st1" d="M26,35.8L26,35.8c-0.1,0-0.2,0-0.4,0c-1.6-0.3-2.8-1-3.8-2c-2-2.2-1.9-5.2-1.9-5.3l0-1l5.5-0.4l0,1.2
						c0,2,1.3,2.5,1.5,2.5l0.2,0l0.1,0.1c0.9,0.6,1.3,1.8,0.9,3C27.8,35,26.9,35.8,26,35.8z M22.3,29.6c0.1,0.8,0.4,1.8,1.2,2.7
						c0.6,0.6,1.4,1,2.4,1.3c0.1-0.1,0.1-0.3,0.1-0.4c0-0.1,0-0.1,0-0.1c-1-0.4-2.3-1.4-2.7-3.4L22.3,29.6z"/>
				</g>
			</g>
		</g>
	</g>
</g>
<path class="st0" d="M82.4,18c0.1-0.1,0.3-0.1,0.5-0.1c0.3-0.1,0.6-0.1,0.9-0.1c0.8-0.1,1.5-0.1,2.3-0.2c0.5,0,1,0,1.5,0
	c0.2,0,0.4-0.1,0.5,0.1c0.1,0.1,0.1,0.3,0.1,0.4c0,0.2,0.1,0.3,0.1,0.5c0,0.2,0.1,0.3,0.1,0.5c0,0.1,0,0.2,0,0.3c0,0,0,0.2,0,0.3
	c1.8-1.5,3.3-2.2,4.5-2.2c1.2,0,2.2,0.5,2.9,1.5c0.7,1,1.1,2.5,1.1,4.4c0,3.4-0.6,5.9-1.9,7.6c-1.2,1.6-3,2.6-5,2.5
	c-0.6,0-1.4-0.1-2-0.3c-0.3-0.1-0.6-0.2-0.6-0.5c0-0.2,0.1-0.5,0.2-0.6c0.1-0.1,0.3-0.1,0.4-0.2c0.2-0.1,0.3-0.2,0.5-0.3
	c0.3-0.2,0.7-0.5,0.9-0.7c0.7-0.7,1.2-1.5,1.6-2.4c0.8-1.9,1.2-4.3,0.6-6.3c-0.2-0.6-0.5-1.2-1.1-1.4c-0.5-0.2-1,0-1.4,0.3
	c-1.1,0.9-1.3,2.5-1.5,3.8c-0.3,2-0.6,4-1,6c-0.3,1.3-0.5,2.6-0.7,4c-0.2,1.2-0.3,2.4-0.4,3.5c0,0.3,0,0.7,0,1c0,0.2,0,0.5-0.2,0.6
	c-0.2,0.2-0.6,0.2-0.9,0.3c-0.5,0.1-0.9,0.2-1.4,0.3c-0.3,0-0.5,0.1-0.8,0.1c-0.3,0-0.6,0.1-0.9,0.1c-0.2,0-0.4,0.1-0.6-0.1
	c0,0,0,0-0.1,0c-0.2-0.2-0.2-0.5-0.2-0.7c0-0.3,0-0.6,0-0.9c0-0.6,0.1-1.2,0.2-1.8c0.1-0.5,0.2-1,0.3-1.5c0.1-0.6,0.2-1.3,0.4-1.9
	c0.2-0.8,0.3-1.6,0.5-2.4c0-0.1,0-0.2,0.1-0.3c0.9-4.2,1.4-7.4,1.4-9.7c0-0.4-0.1-0.9-0.3-1.4c-0.1-0.3-0.3-0.6-0.5-0.9
	c-0.1-0.1-0.2-0.3-0.3-0.4c-0.1-0.1-0.2-0.3-0.2-0.4C82.2,18.1,82.3,18.1,82.4,18z"/>
</svg>
